<svg xmlns="http://www.w3.org/2000/svg" viewBox="0 0 64 64" role="img" aria-label="Brandtrove">
  <defs>
    <linearGradient id="g" x1="0" y1="0" x2="1" y2="1">
      <stop offset="0%" stop-color="#f0d78c"/>
      <stop offset="100%" stop-color="#b8942d"/>
    </linearGradient>
  </defs>
  <rect width="64" height="64" rx="14" fill="#070b14"/>
  <path d="M14 42V22h10.5c6.2 0 10 3.4 10 8.7 0 5.6-4 8.8-10.8 8.8H14zm8.2-6.4h2.1c3.1 0 4.8-1.5 4.8-4.1 0-2.4-1.6-3.7-4.5-3.7h-2.4v7.8zM38.8 42l5.8-20h7.8L56 42h-8.1l-1-3.8H47.9L47 42h-8.2zm7.2-10.2 2.2-8.2 2.2 8.2h-4.4z" fill="url(#g)"/>
</svg>
